<svg width="44" height="51" viewBox="0 0 44 51" fill="none" xmlns="http://www.w3.org/2000/svg">
<path d="M43.1288 37.4687C41.5198 41.9318 39.1364 45.8902 35.5325 49.1221C33.2593 51.159 30.6385 51.1749 27.8402 50.1338C26.4015 49.5997 24.9029 48.9818 23.4066 48.9207C21.7449 48.8551 20.0496 49.353 18.3855 49.6585C17.8868 49.7491 17.4264 50.032 16.9468 50.213C13.6618 51.4442 11.4486 51.0549 9.034 48.6287C4.81201 44.4066 1.92501 39.1543 0.699134 33.465C-0.307956 28.9069 -0.418256 24.4121 1.65827 20.0531C3.96019 15.2007 8.82539 12.2924 14.127 12.6817C15.2012 12.7677 16.3762 12.9668 17.3305 13.4467C20.4141 14.9925 23.3251 14.8702 26.4638 13.4467C29.4108 12.1136 32.5735 12.1 35.6955 13.114C38.1368 13.8783 40.2403 15.386 41.6757 17.4005C33.6214 22.5381 34.3239 33.3994 43.1288 37.4687Z" fill="#431F54"/>
<path d="M31.9506 0.97998C32.8498 6.03606 27.8144 12.0699 22.5247 12.3822C21.8821 12.4184 21.3834 12.441 21.3258 11.5765C21.0141 6.6924 26.661 0.995823 31.9506 0.97998Z" fill="#431F54"/>
</svg>
