<svg width="50" height="42" viewBox="0 0 50 42" fill="none" xmlns="http://www.w3.org/2000/svg">
<path d="M48.0965 0.765733C47.3757 3.05608 45.9712 4.67232 44.4818 6.3779C45.9791 5.97181 47.4764 5.56301 49.1513 5.10819C48.1601 6.99516 46.8907 8.40023 45.2636 9.53729C44.8581 9.82155 44.4791 10.5119 44.495 11.0046C45.0224 29.1975 30.6801 41.3991 15.0976 41.3315C10.0041 41.3098 5.22862 40.0374 0.702265 37.7064C0.506158 37.6063 0.310056 37.498 0.127199 37.3734C0.063597 37.3301 0.0397514 37.2327 0 37.165C2.41158 36.8212 4.84701 36.591 7.2321 36.101C9.65958 35.6029 11.9042 34.5985 13.9103 32.5545C9.28857 32.0374 6.48477 29.4709 4.6297 25.1988C6.10845 25.1988 7.40966 25.1988 8.71085 25.1988C8.75325 25.0824 8.79565 24.966 8.8354 24.8496C4.18979 23.1765 1.80471 19.8006 1.33829 14.9329C2.83825 15.3281 4.25339 15.699 5.66854 16.0699C0.911619 9.97045 0.127192 6.4131 2.81969 1.89737C8.50678 8.10243 15.0234 12.61 23.9091 12.6967C23.9091 11.2726 23.7369 9.99211 23.9356 8.77654C25.2342 0.836121 34.6049 -2.72665 40.8167 2.37927C41.7866 3.1752 42.5499 3.35659 43.6311 2.81243C45.0436 2.09771 46.4985 1.49128 48.0965 0.765733Z" fill="#431F54"/>
</svg>
