<svg width="81" height="90" viewBox="0 0 81 90" fill="none" xmlns="http://www.w3.org/2000/svg">
<path d="M80.4256 65.7936C77.4278 73.8412 72.9869 80.9788 66.2718 86.8063C62.0364 90.4792 57.1532 90.5077 51.9394 88.6305C49.2587 87.6674 46.4664 86.5533 43.6785 86.4431C40.5824 86.3248 37.4237 87.2226 34.3231 87.7735C33.3938 87.9367 32.536 88.4469 31.6424 88.7733C25.5216 90.9934 21.3979 90.2914 16.8989 85.9167C9.03232 78.3036 3.65316 68.8329 1.36906 58.5744C-0.507389 50.3554 -0.712905 42.2507 3.15615 34.3908C7.44518 25.6413 16.5102 20.3973 26.3884 21.0992C28.3899 21.2543 30.5791 21.6134 32.3573 22.4786C38.1028 25.2659 43.5266 25.0455 49.3749 22.4786C54.8657 20.0749 60.7587 20.0504 66.5757 21.8787C71.1245 23.2569 75.0436 25.9755 77.7182 29.608C62.7111 38.8717 64.0201 58.4561 80.4256 65.7936Z" fill="black"/>
<path d="M59.5979 0C61.2733 9.1168 51.891 19.9966 42.0352 20.5597C40.8378 20.625 39.9085 20.6658 39.8013 19.1069C39.2205 10.3003 49.742 0.0285665 59.5979 0Z" fill="black"/>
</svg>
