<svg width="24" height="24" viewBox="0 0 24 24" fill="none" xmlns="http://www.w3.org/2000/svg">
<mask id="mask0_3570_59" style="mask-type:alpha" maskUnits="userSpaceOnUse" x="0" y="0" width="24" height="24">
<rect width="24" height="24" fill="#D9D9D9"/>
</mask>
<g mask="url(#mask0_3570_59)">
<path d="M15.175 8.32461C15.6583 8.80794 16.0125 9.35794 16.2375 9.97461C16.4625 10.5913 16.5417 11.2246 16.475 11.8746C16.475 12.1246 16.3833 12.3371 16.2 12.5121C16.0167 12.6871 15.8 12.7746 15.55 12.7746C15.3 12.7746 15.0875 12.6871 14.9125 12.5121C14.7375 12.3371 14.65 12.1246 14.65 11.8746C14.7333 11.4413 14.7083 11.0246 14.575 10.6246C14.4417 10.2246 14.2333 9.88294 13.95 9.59961C13.6667 9.31628 13.325 9.09961 12.925 8.94961C12.525 8.79961 12.1 8.76628 11.65 8.84961C11.4 8.84961 11.1875 8.75794 11.0125 8.57461C10.8375 8.39128 10.75 8.17461 10.75 7.92461C10.75 7.67461 10.8375 7.46211 11.0125 7.28711C11.1875 7.11211 11.4 7.02461 11.65 7.02461C12.2833 6.95794 12.9083 7.03711 13.525 7.26211C14.1417 7.48711 14.6917 7.84128 15.175 8.32461ZM12 5.99961C11.6833 5.99961 11.375 6.01211 11.075 6.03711C10.775 6.06211 10.475 6.10794 10.175 6.17461C9.89167 6.22461 9.6375 6.18294 9.4125 6.04961C9.1875 5.91628 9.03333 5.71628 8.95 5.44961C8.86667 5.18294 8.89583 4.92461 9.0375 4.67461C9.17917 4.42461 9.38333 4.27461 9.65 4.22461C10.0333 4.14128 10.4208 4.08294 10.8125 4.04961C11.2042 4.01628 11.6 3.99961 12 3.99961C14.2833 3.99961 16.3708 4.59961 18.2625 5.79961C20.1542 6.99961 21.6 8.61628 22.6 10.6496C22.6667 10.7829 22.7167 10.9204 22.75 11.0621C22.7833 11.2038 22.8 11.3496 22.8 11.4996C22.8 11.6496 22.7875 11.7954 22.7625 11.9371C22.7375 12.0788 22.6917 12.2163 22.625 12.3496C22.325 13.0163 21.9542 13.6413 21.5125 14.2246C21.0708 14.8079 20.5833 15.3413 20.05 15.8246C19.85 16.0079 19.6167 16.0829 19.35 16.0496C19.0833 16.0163 18.8667 15.8829 18.7 15.6496C18.5333 15.4163 18.4625 15.1621 18.4875 14.8871C18.5125 14.6121 18.625 14.3829 18.825 14.1996C19.225 13.8163 19.5917 13.3996 19.925 12.9496C20.2583 12.4996 20.55 12.0163 20.8 11.4996C19.9667 9.81628 18.7625 8.47878 17.1875 7.48711C15.6125 6.49544 13.8833 5.99961 12 5.99961ZM12 18.9996C9.76667 18.9996 7.725 18.3954 5.875 17.1871C4.025 15.9788 2.56667 14.3913 1.5 12.4246C1.41667 12.2913 1.35417 12.1454 1.3125 11.9871C1.27083 11.8288 1.25 11.6663 1.25 11.4996C1.25 11.3329 1.26667 11.1746 1.3 11.0246C1.33333 10.8746 1.39167 10.7246 1.475 10.5746C1.80833 9.90794 2.19583 9.27044 2.6375 8.66211C3.07917 8.05378 3.58333 7.49961 4.15 6.99961L2.075 4.89961C1.89167 4.69961 1.80417 4.46211 1.8125 4.18711C1.82083 3.91211 1.91667 3.68294 2.1 3.49961C2.28333 3.31628 2.51667 3.22461 2.8 3.22461C3.08333 3.22461 3.31667 3.31628 3.5 3.49961L20.5 20.4996C20.6833 20.6829 20.7792 20.9121 20.7875 21.1871C20.7958 21.4621 20.7 21.6996 20.5 21.8996C20.3167 22.0829 20.0833 22.1746 19.8 22.1746C19.5167 22.1746 19.2833 22.0829 19.1 21.8996L15.6 18.4496C15.0167 18.6329 14.425 18.7704 13.825 18.8621C13.225 18.9538 12.6167 18.9996 12 18.9996ZM5.55 8.39961C5.06667 8.83294 4.625 9.30794 4.225 9.82461C3.825 10.3413 3.48333 10.8996 3.2 11.4996C4.03333 13.1829 5.2375 14.5204 6.8125 15.5121C8.3875 16.5038 10.1167 16.9996 12 16.9996C12.3333 16.9996 12.6583 16.9788 12.975 16.9371C13.2917 16.8954 13.6167 16.8496 13.95 16.7996L13.05 15.8496C12.8667 15.8996 12.6917 15.9371 12.525 15.9621C12.3583 15.9871 12.1833 15.9996 12 15.9996C10.75 15.9996 9.6875 15.5621 8.8125 14.6871C7.9375 13.8121 7.5 12.7496 7.5 11.4996C7.5 11.3163 7.5125 11.1413 7.5375 10.9746C7.5625 10.8079 7.6 10.6329 7.65 10.4496L5.55 8.39961Z" fill="#ABABAB"/>
</g>
</svg>
