<svg width="52" height="52" viewBox="0 0 52 52" fill="none" xmlns="http://www.w3.org/2000/svg">
<path d="M51.2386 26.2063C51.3062 40.2119 39.8196 51.6922 25.6845 51.7478C11.5849 51.8016 0.0475017 40.4407 0.000148013 26.4553C-0.0472057 12.2882 11.2737 0.87846 25.4765 0.777519C39.5879 0.676578 51.1709 12.1098 51.2386 26.2063ZM32.9769 29.4886C33.3236 27.3082 33.6602 25.1952 34.0187 22.9425C31.8912 22.9425 29.8837 22.9425 27.8323 22.9425C27.8323 21.171 27.7799 19.5189 27.8509 17.8736C27.8999 16.7212 28.6339 15.9523 29.696 15.5906C30.3218 15.377 31.0118 15.3147 31.6798 15.2727C32.5102 15.2205 33.3456 15.2609 34.1726 15.2609C34.1726 13.375 34.1726 11.6287 34.1726 9.64352C32.5778 9.64352 31.0608 9.63006 29.5438 9.64857C28.5629 9.66034 27.5566 9.59473 26.6045 9.78315C23.3929 10.4174 21.1115 13.2438 20.8527 16.9096C20.7326 18.6121 20.802 20.3265 20.78 22.0357C20.7766 22.3301 20.7428 22.6229 20.7191 22.9896C18.7421 22.9896 16.8665 22.9896 14.947 22.9896C14.947 25.1817 14.947 27.2914 14.947 29.5138C16.9004 29.5138 18.7996 29.5138 20.8121 29.5138C20.8121 34.9007 20.8121 40.1782 20.8121 45.4675C23.195 45.4675 25.4612 45.4675 27.8357 45.4675C27.8357 40.1278 27.8357 34.8485 27.8357 29.4919C29.5979 29.4886 31.2519 29.4886 32.9769 29.4886Z" fill="#431F54"/>
</svg>
