<svg width="47" height="47" viewBox="0 0 47 47" fill="none" xmlns="http://www.w3.org/2000/svg">
<mask id="mask0_1660_290" style="mask-type:alpha" maskUnits="userSpaceOnUse" x="0" y="0" width="47" height="47">
<rect width="47" height="47" fill="#D9D9D9"/>
</mask>
<g mask="url(#mask0_1660_290)">
<path d="M13.708 43.0834C12.6309 43.0834 11.7089 42.6999 10.9419 41.9329C10.1748 41.1659 9.79134 40.2438 9.79134 39.1667C9.79134 38.0897 10.1748 37.1676 10.9419 36.4006C11.7089 35.6336 12.6309 35.2501 13.708 35.2501C14.7851 35.2501 15.7071 35.6336 16.4742 36.4006C17.2412 37.1676 17.6247 38.0897 17.6247 39.1667C17.6247 40.2438 17.2412 41.1659 16.4742 41.9329C15.7071 42.6999 14.7851 43.0834 13.708 43.0834ZM33.2913 43.0834C32.2143 43.0834 31.2922 42.6999 30.5252 41.9329C29.7582 41.1659 29.3747 40.2438 29.3747 39.1667C29.3747 38.0897 29.7582 37.1676 30.5252 36.4006C31.2922 35.6336 32.2143 35.2501 33.2913 35.2501C34.3684 35.2501 35.2905 35.6336 36.0575 36.4006C36.8245 37.1676 37.208 38.0897 37.208 39.1667C37.208 40.2438 36.8245 41.1659 36.0575 41.9329C35.2905 42.6999 34.3684 43.0834 33.2913 43.0834ZM12.0434 11.7501L16.7434 21.5417H30.4518L35.8372 11.7501H12.0434ZM10.183 7.83341H39.0684C39.8191 7.83341 40.3903 8.16796 40.782 8.83706C41.1736 9.50616 41.19 10.1834 40.8309 10.8688L33.8788 23.4022C33.5198 24.0549 33.0384 24.5608 32.4346 24.9199C31.8307 25.2789 31.1698 25.4584 30.4518 25.4584H15.8622L13.708 29.3751H37.208V33.2917H13.708C12.2393 33.2917 11.1295 32.6471 10.3788 31.3579C9.62815 30.0687 9.59551 28.7876 10.2809 27.5147L12.9247 22.7167L5.87467 7.83341H1.95801V3.91675H8.32259L10.183 7.83341Z" fill="white"/>
</g>
</svg>
