<svg width="19" height="19" viewBox="0 0 19 19" fill="none" xmlns="http://www.w3.org/2000/svg">
<path d="M4.0998 11.525C3.72702 11.525 3.4248 11.8272 3.4248 12.2C3.4248 12.5728 3.72702 12.875 4.0998 12.875H5.8998C6.27259 12.875 6.5748 12.5728 6.5748 12.2C6.5748 11.8272 6.27259 11.525 5.8998 11.525H4.0998Z" fill="black" fill-opacity="0.65"/>
<path d="M7.9248 12.2C7.9248 11.8272 8.22702 11.525 8.5998 11.525H12.1998C12.5726 11.525 12.8748 11.8272 12.8748 12.2C12.8748 12.5728 12.5726 12.875 12.1998 12.875H8.5998C8.22702 12.875 7.9248 12.5728 7.9248 12.2Z" fill="black" fill-opacity="0.65"/>
<path fill-rule="evenodd" clip-rule="evenodd" d="M0.5 9.49999C0.5 6.54868 0.5 5.07303 1.23243 4.02701C1.50341 3.64001 1.84002 3.3034 2.22702 3.03243C3.27304 2.29999 4.74869 2.29999 7.7 2.29999H11.3C14.2513 2.29999 15.7269 2.29999 16.773 3.03243C17.16 3.3034 17.4966 3.64001 17.7676 4.02701C18.5 5.07303 18.5 6.54868 18.5 9.49999C18.5 12.4513 18.5 13.9269 17.7676 14.973C17.4966 15.36 17.16 15.6966 16.773 15.9676C15.7269 16.7 14.2513 16.7 11.3 16.7H7.7C4.74869 16.7 3.27304 16.7 2.22702 15.9676C1.84002 15.6966 1.50341 15.36 1.23243 14.973C0.5 13.9269 0.5 12.4513 0.5 9.49999ZM7.7 3.64999H11.3C12.8049 3.64999 13.8281 3.65174 14.6095 3.7341C15.3668 3.81393 15.74 3.95716 15.9986 4.13827C16.2567 4.31893 16.481 4.54333 16.6618 4.80133C16.8428 5.06 16.986 5.43318 17.0658 6.19053C17.0713 6.24258 17.0765 6.29572 17.0813 6.34999H1.91871C1.9235 6.29572 1.92863 6.24258 1.93411 6.19053C2.01394 5.43318 2.15717 5.06 2.33829 4.80133C2.51894 4.54333 2.74334 4.31893 3.00134 4.13827C3.26001 3.95716 3.63319 3.81393 4.39054 3.7341C5.17193 3.65174 6.19515 3.64999 7.7 3.64999ZM1.85348 8.14999C1.8502 8.55263 1.85 8.9997 1.85 9.49999C1.85 11.0048 1.85175 12.0281 1.93411 12.8095C2.01394 13.5668 2.15717 13.94 2.33829 14.1986C2.51894 14.4566 2.74334 14.681 3.00134 14.8617C3.26001 15.0428 3.63319 15.186 4.39054 15.2658C5.17193 15.3483 6.19515 15.35 7.7 15.35H11.3C12.8048 15.35 13.8281 15.3483 14.6095 15.2658C15.3668 15.186 15.74 15.0428 15.9986 14.8617C16.2567 14.681 16.481 14.4566 16.6618 14.1986C16.8428 13.94 16.986 13.5668 17.0658 12.8095C17.1483 12.0281 17.15 11.0048 17.15 9.49999C17.15 8.9997 17.1498 8.55263 17.1465 8.14999H1.85348Z" fill="black" fill-opacity="0.65"/>
</svg>
