<svg width="20" height="20" viewBox="0 0 20 20" fill="none" xmlns="http://www.w3.org/2000/svg">
<path fill-rule="evenodd" clip-rule="evenodd" d="M10.8166 2.57505C10.2773 2.46954 9.72265 2.46954 9.18336 2.57505C8.45272 2.71799 7.75639 3.13595 6.043 4.19793C4.50028 5.15412 3.88401 5.54739 3.45469 6.07265C3.13751 6.46071 2.89174 6.90182 2.72879 7.37551C2.50823 8.01667 2.49861 8.74673 2.49861 10.5594V15.1145C2.49861 16.4342 3.57035 17.5041 4.89243 17.5041C5.78053 17.5041 6.50047 16.7854 6.50047 15.8989V13.6765C6.50047 11.7472 8.06726 10.1832 9.99999 10.1832C11.9327 10.1832 13.4995 11.7472 13.4995 13.6765V15.8989C13.4995 16.7854 14.2195 17.5041 15.1076 17.5041C16.4296 17.5041 17.5014 16.4342 17.5014 15.1145V10.5594C17.5014 8.74673 17.4918 8.01667 17.2712 7.37551C17.1083 6.90182 16.8625 6.46071 16.5453 6.07265C16.116 5.54739 15.4997 5.15412 13.957 4.19793C12.2436 3.13595 11.5473 2.71799 10.8166 2.57505ZM8.89513 1.10706C9.62476 0.964313 10.3752 0.964313 11.1049 1.10706C12.1383 1.30925 13.0796 1.89291 14.6098 2.84167C14.6551 2.86981 14.7011 2.89828 14.7475 2.92706C14.789 2.95279 14.8301 2.97822 14.8706 3.00337C16.2503 3.85819 17.0994 4.38429 17.7064 5.12696C18.1356 5.65199 18.4681 6.24879 18.6885 6.88967C19.0004 7.79621 19.0002 8.79381 19 10.4148C19 10.4624 19 10.5107 19 10.5594V15.1145C19 17.2604 17.2573 19 15.1076 19C13.3918 19 12.0009 17.6116 12.0009 15.8989V13.6765C12.0009 12.5734 11.1051 11.6791 9.99999 11.6791C8.8949 11.6791 7.99906 12.5734 7.99906 13.6765V15.8989C7.99906 17.6116 6.60817 19 4.89243 19C2.74271 19 1.00003 17.2604 1.00003 15.1145V10.5594C1.00003 10.5107 1.00002 10.4624 1.00002 10.4147C0.999747 8.79381 0.999584 7.79621 1.31145 6.88967C1.53192 6.24879 1.86443 5.65199 2.29356 5.12696C2.90058 4.38429 3.7497 3.85819 5.12936 3.00337C5.16994 2.97822 5.21099 2.95279 5.2525 2.92706C5.29894 2.89828 5.34485 2.86981 5.39023 2.84167C6.92035 1.89291 7.86165 1.30925 8.89513 1.10706Z" fill="white"/>
</svg>
