<svg width="27" height="26" viewBox="0 0 27 26" fill="none" xmlns="http://www.w3.org/2000/svg">
<path fill-rule="evenodd" clip-rule="evenodd" d="M18.2254 4.90002C20.0894 4.90002 21.6004 6.41106 21.6004 8.27502C21.6004 10.139 20.0894 11.65 18.2254 11.65C16.9896 11.65 15.909 10.9858 15.3209 9.99495L11.9965 11.9896C12.0965 12.3086 12.1504 12.648 12.1504 13C12.1504 13.352 12.0965 13.6914 11.9965 14.0105L15.3209 16.0051C15.909 15.0142 16.9896 14.35 18.2254 14.35C20.0894 14.35 21.6004 15.861 21.6004 17.725C21.6004 19.589 20.0894 21.1 18.2254 21.1C16.3614 21.1 14.8504 19.589 14.8504 17.725C14.8504 17.5853 14.8589 17.4475 14.8754 17.3122L11.3418 15.192C10.7228 15.916 9.80268 16.375 8.77539 16.375C6.91143 16.375 5.40039 14.864 5.40039 13C5.40039 11.1361 6.91143 9.62502 8.77539 9.62502C9.80268 9.62502 10.7228 10.084 11.3418 10.8081L14.8754 8.6879C14.8589 8.55258 14.8504 8.41479 14.8504 8.27502C14.8504 6.41106 16.3614 4.90002 18.2254 4.90002ZM18.2254 6.25002C19.3437 6.25002 20.2504 7.15665 20.2504 8.27502C20.2504 9.3934 19.3437 10.3 18.2254 10.3C17.1071 10.3 16.2004 9.3934 16.2004 8.27502C16.2004 7.15665 17.1071 6.25002 18.2254 6.25002ZM8.77539 10.975C9.89377 10.975 10.8004 11.8816 10.8004 13C10.8004 14.1184 9.89377 15.025 8.77539 15.025C7.65701 15.025 6.75039 14.1184 6.75039 13C6.75039 11.8816 7.65701 10.975 8.77539 10.975ZM20.2504 17.725C20.2504 16.6067 19.3437 15.7 18.2254 15.7C17.1071 15.7 16.2004 16.6067 16.2004 17.725C16.2004 18.8434 17.1071 19.75 18.2254 19.75C19.3437 19.75 20.2504 18.8434 20.2504 17.725Z" fill="black"/>
</svg>
