<svg width="19" height="19" viewBox="0 0 19 19" fill="none" xmlns="http://www.w3.org/2000/svg">
<path fill-rule="evenodd" clip-rule="evenodd" d="M5.63025 2.29999H9.7412C10.2539 2.29999 10.6733 2.29998 11.0158 2.32373C11.3697 2.34828 11.6911 2.40053 11.9982 2.53008C12.7018 2.82699 13.2616 3.38735 13.5583 4.09162C13.6877 4.39892 13.7399 4.72075 13.7645 5.07498C13.7802 5.30265 13.7855 5.56431 13.7872 5.86478L15.7197 6.41933C16.1817 6.55189 16.5716 6.66378 16.8848 6.78557C17.2157 6.91424 17.513 7.07263 17.7677 7.32554C17.9362 7.49292 18.0799 7.68367 18.1941 7.89196C18.3668 8.2067 18.437 8.53644 18.4694 8.89027C18.5 9.22516 18.5 9.63112 18.5 10.1122V11.581C18.5 12.1803 18.5001 12.6967 18.4445 13.1102C18.385 13.5534 18.2507 13.9782 17.9065 14.3228C17.5622 14.6674 17.1378 14.8018 16.695 14.8614C16.2965 14.915 15.8025 14.9168 15.2308 14.9169C14.9373 15.9463 13.9905 16.7 12.8678 16.7C11.7451 16.7 10.7983 15.9463 10.5048 14.9169H7.12518C6.83169 15.9463 5.88488 16.7 4.76219 16.7C3.61486 16.7 2.65119 15.9128 2.38083 14.8487C1.30178 14.5887 0.500004 13.6163 0.500004 12.4565L0.500001 7.43496C0.49998 6.41378 0.499963 5.57925 0.588459 4.92042C0.680963 4.23175 0.881156 3.63468 1.35731 3.15809C1.83347 2.6815 2.42999 2.48112 3.11802 2.38853C3.77624 2.29995 4.61001 2.29997 5.63025 2.29999ZM2.43973 13.436C2.77274 12.473 3.68679 11.7814 4.76219 11.7814C5.88495 11.7814 6.83181 12.5351 7.12523 13.5647H10.5048C10.7982 12.5351 11.745 11.7814 12.8678 11.7814C13.9905 11.7814 14.9374 12.5351 15.2308 13.5647C15.8258 13.5644 16.2201 13.5609 16.515 13.5212C16.808 13.4818 16.8998 13.4181 16.9512 13.3667C17.0027 13.3152 17.0662 13.2233 17.1056 12.9301C17.1477 12.6173 17.1491 12.193 17.1491 11.5364V10.818L15.8146 10.8181C15.4415 10.8181 15.1391 10.5154 15.1391 10.142C15.1391 9.76864 15.4415 9.4659 15.8146 9.4659L17.1454 9.4659C17.1421 9.28951 17.1359 9.14243 17.1241 9.0136C17.1009 8.75969 17.0597 8.63354 17.01 8.54289C16.9581 8.44821 16.8928 8.36151 16.8162 8.28543C16.7428 8.21258 16.633 8.13831 16.3955 8.04598C16.1469 7.94927 15.8169 7.85391 15.3188 7.71094L13.7881 7.27171V10.3898C13.7881 10.7632 13.4857 11.0659 13.1127 11.0659C12.7396 11.0659 12.4372 10.7632 12.4372 10.3898V6.37453C12.4372 5.83165 12.4369 5.45889 12.4167 5.16847C12.3971 4.88426 12.3608 4.72943 12.3135 4.61689C12.1537 4.23768 11.8522 3.93595 11.4734 3.77607C11.3609 3.72863 11.2063 3.69238 10.9224 3.67268C10.6322 3.65255 10.2598 3.65218 9.71735 3.65218H5.67861C4.59811 3.65218 3.8557 3.65361 3.29803 3.72866C2.7598 3.80109 2.49588 3.93074 2.31257 4.11423C2.12926 4.29771 1.99971 4.56187 1.92735 5.10059C1.85238 5.65877 1.85094 6.40187 1.85094 7.48336V12.4565C1.85094 12.8811 2.08948 13.2498 2.43973 13.436ZM12.8678 15.3478C13.4787 15.3478 13.9739 14.8521 13.9739 14.2407C13.9739 13.6293 13.4787 13.1336 12.8678 13.1336C12.257 13.1336 11.7618 13.6293 11.7618 14.2407C11.7618 14.8521 12.257 15.3478 12.8678 15.3478ZM5.86827 14.2407C5.86827 14.8521 5.37307 15.3478 4.76219 15.3478C4.15133 15.3478 3.65611 14.8521 3.65611 14.2407C3.65611 13.6293 4.15133 13.1336 4.76219 13.1336C5.37307 13.1336 5.86827 13.6293 5.86827 14.2407Z" fill="#B024E2"/>
</svg>
