<svg width="20" height="20" viewBox="0 0 20 20" fill="none" xmlns="http://www.w3.org/2000/svg">
<g opacity="0.3">
<path d="M5.04975 13.8891C4.75685 14.182 4.75685 14.6568 5.04975 14.9497C5.34264 15.2426 5.81751 15.2426 6.11041 14.9497L9.99951 11.0606L13.8886 14.9497C14.1815 15.2426 14.6564 15.2426 14.9493 14.9497C15.2422 14.6568 15.2422 14.182 14.9493 13.8891L11.0602 9.99996L14.9492 6.1109C15.2421 5.818 15.2421 5.34313 14.9492 5.05024C14.6563 4.75734 14.1815 4.75734 13.8886 5.05024L9.99951 8.9393L6.11046 5.05024C5.81756 4.75734 5.34269 4.75734 5.0498 5.05024C4.7569 5.34313 4.7569 5.818 5.0498 6.1109L8.93886 9.99996L5.04975 13.8891Z" fill="black"/>
</g>
</svg>
