<svg width="26" height="26" viewBox="0 0 26 26" fill="none" xmlns="http://www.w3.org/2000/svg">
<path d="M6.56487 18.0558C6.1841 18.4366 6.1841 19.0538 6.56487 19.4346C6.94563 19.8154 7.56296 19.8154 7.94373 19.4346L12.9996 14.3788L18.0554 19.4346C18.4362 19.8154 19.0535 19.8154 19.4343 19.4346C19.8151 19.0538 19.8151 18.4366 19.4343 18.0558L14.3785 12.9999L19.4342 7.94416C19.8149 7.56339 19.8149 6.94606 19.4342 6.5653C19.0534 6.18453 18.4362 6.18453 18.0554 6.5653L12.9996 11.6211L7.9438 6.5653C7.56303 6.18453 6.9457 6.18453 6.56494 6.5653C6.18417 6.94606 6.18417 7.56339 6.56494 7.94416L11.6207 12.9999L6.56487 18.0558Z" fill="black"/>
</svg>
